<svg width="231" height="84" viewBox="0 0 231 84" fill="none" xmlns="http://www.w3.org/2000/svg">
<g filter="url(#filter0_d_608_20)">
<mask id="path-1-inside-1_608_20" fill="white">
<path d="M18.2857 12C10.4124 12 4 18.4124 4 26.2857V57.7143C4 65.5876 10.4124 72 18.2857 72H49.7143C57.5876 72 64 65.5876 64 57.7143V26.2857C64 18.4124 57.5876 12 49.7143 12H18.2857ZM18.2857 14.8571H49.7143C56.0438 14.8571 61.1429 19.9562 61.1429 26.2857V57.7143C61.1429 64.0438 56.0438 69.1429 49.7143 69.1429H18.2857C11.9562 69.1429 6.85714 64.0438 6.85714 57.7143V26.2857C6.85714 19.9562 11.9562 14.8571 18.2857 14.8571ZM13.4503 22.0167C13.4035 22.0392 13.3694 22.0805 13.3415 22.1283C12.7029 23.2226 12.8218 24.7885 12.9146 26.1099C12.6318 25.8799 12.522 25.5914 12.4291 25.2171C11.9506 23.2785 12.2791 23.016 12.0134 22.9403C11.8134 23.0831 11.7608 23.3325 11.6451 24.3354C11.5165 25.4497 11.6624 26.5155 11.7567 27.6641C11.5867 27.5926 11.5052 27.4649 11.4609 27.332C11.3638 27.0406 11.2712 26.7434 11.2126 26.442C11.0398 25.552 11.2084 25.6821 10.9699 25.245C10.7713 25.515 10.7786 25.618 10.7243 27.2037C10.6329 29.8765 12.545 31.7653 12.4821 31.6596C11.935 31.4796 11.9852 31.3869 11.3438 31.0569C11.3395 31.2826 11.3373 31.2821 11.433 31.4364C12.4645 33.1135 14.6788 33.5517 12.6802 33.2974C12.7031 33.6089 12.4726 33.3997 14.4883 34.9883C13.9711 35.0426 14.2098 35.0301 13.5926 35.0301C14.2855 35.7673 15.7928 35.933 18.7656 37.2902C19.7071 37.7188 22.2367 39.3096 23.2439 40.4682C23.9139 41.2368 24.4669 42.0658 24.7254 43.0658C25.0312 44.2501 23.2392 43.9796 21.5921 45.351C21.0378 45.8124 20.6587 46.3621 20.8387 47.1507C20.0559 47.8992 20.2145 48.8363 20.8945 49.4749C20.9274 49.322 20.9382 49.2025 20.981 49.0982C21.2482 48.4596 21.3581 48.2795 21.6367 48.4481C21.6281 48.6467 21.4412 48.8272 21.5698 49.0815C21.8969 48.7458 22.2993 48.6692 22.7193 48.6406C23.9422 48.5578 24.1789 48.1927 24.5804 48.1384C27.7589 47.707 27.2909 51.4987 26.6395 52.8873C25.9438 54.3701 25.8055 54.7876 25.4983 55.8504C24.9012 57.9176 24.4887 56.7197 22.6858 56.2383C22.0587 56.0697 21.2795 56.3056 21.341 56.947C21.9052 56.7156 22.17 56.6856 22.3929 56.8242C22.0229 57.2371 21.9116 57.5415 22.0273 57.8287C22.7002 57.4158 22.7012 57.418 22.9369 57.4994C22.6627 58.0066 22.6584 58.3127 22.9342 58.4927C23.0684 58.1242 23.3642 58.0411 23.707 58.0854C24.8599 58.2368 25.3531 59.0377 26.1345 59.1205C26.2502 59.132 26.3602 59.1684 26.433 59.3298C24.8659 59.7484 24.5369 59.7976 24.1283 60.1948C23.8598 60.4562 23.9158 60.8353 24.2344 61.0653C24.3501 60.7667 24.5613 60.5837 24.8984 60.5379C24.7142 60.9765 24.7823 61.2722 25.0965 61.4308C25.1908 61.1051 25.4437 60.974 25.7494 60.8811C25.6223 61.5169 25.7344 61.8942 26.0787 62.0056C26.1558 61.527 26.4037 61.1588 26.8209 60.9174C27.1209 60.7431 27.4659 60.7256 27.803 60.6942C28.0773 60.6685 28.3029 60.7372 28.5201 60.9258C29.3672 61.6644 29.7487 61.0423 29.9459 61.5452C30.0002 61.6823 30.0163 61.8362 30.0491 61.9805C30.2334 61.8719 30.3236 61.7212 30.3365 61.4727C30.3879 60.5155 29.561 60.3101 29.0167 60.0301C28.4453 59.7358 28.5209 58.9663 28.8438 58.6406C29.0738 58.4092 29.2009 58.6259 29.3181 58.8973C29.5438 59.4202 29.2617 59.3479 29.9403 58.2779C30.1203 57.9936 30.3521 57.7482 30.6406 57.5497C30.7721 57.7468 30.8039 57.9974 31.0396 58.1189C31.2268 57.1017 31.1168 57.5189 31.4554 56.5089C31.5696 56.6132 31.6604 56.6975 31.779 56.8047C31.8176 56.7061 31.8543 56.6552 31.8571 56.6038C31.8914 55.9995 32.4581 55.2386 32.8867 55.0329C33.2939 54.8372 33.2135 55.4924 33.082 55.7695C32.5692 56.8481 31.2494 57.8967 31.8209 58.5681C31.9352 58.5567 32.0367 58.5461 32.1752 58.5318C32.2595 59.0675 32.231 59.2242 32.4682 59.2042C32.8696 59.17 32.8816 59.2634 33.0988 59.7148C33.4431 59.6448 33.6673 59.5541 33.8744 59.8041C34.0702 60.0398 34.0771 60.0493 34.3599 59.9464C34.9556 59.7307 34.8078 60.9116 35.5792 60.5045C36.5407 59.9973 36.5334 61.4476 37.4905 60.909C37.8391 60.7133 38.1585 60.7687 38.4671 60.9816C38.7385 61.1687 39.1554 61.1575 39.3711 60.9118C40.0254 60.1647 40.4522 60.9619 40.8722 60.4347C41.1765 60.0504 41.1681 60.1496 41.6395 60.2896C42.4638 60.5339 42.1048 59.6865 42.7305 59.6451C43.2719 59.6094 42.9375 59.1579 43.5089 59.1122C43.8875 59.0822 43.9195 58.8377 43.841 58.4648C43.2524 55.6506 40.2732 57.4413 36.7846 50.2199C36.8803 50.2013 36.9356 50.2151 36.9827 50.2394C38.1941 50.8451 38.3112 51.7445 39.4269 51.9916C39.6183 52.0345 39.8213 52.0814 40.0156 51.9414C39.9385 51.8128 39.8536 51.7029 39.8036 51.5815C39.7079 51.3515 39.8339 51.0811 40.3867 51.2997C40.601 51.384 40.8107 51.4758 41.0536 51.5787C41.0936 51.4801 41.1325 51.3952 41.1596 51.308C41.2853 50.9109 40.9691 50.5469 41.1791 50.3454C41.3577 50.4211 42.1913 50.9596 42.2199 50.5268C42.2884 49.5039 41.5457 48.9923 42.8114 49.3465C43.0942 48.8123 42.7173 48.3694 42.683 48.2165C42.6445 48.0465 42.7698 47.9253 42.9369 47.9682C43.1284 48.0168 43.3249 48.1857 43.4978 48.3114C43.7363 47.8228 43.5775 47.4122 43.3304 47.0279C43.5661 46.8536 43.7376 47.0351 43.9219 47.0837C44.4062 46.6008 43.0688 45.9302 43.9302 45.6217C44.1802 45.5317 44.4146 45.5821 44.7003 45.6049C44.9718 45.2449 44.5073 44.9035 44.1144 44.5335C44.2858 44.1449 44.5835 44.2156 44.865 44.2656C45.0364 43.8699 44.7776 43.7137 44.4576 43.3923C44.659 43.0552 44.9556 43.131 45.2528 43.1468C45.4656 42.3268 44.8483 42.4145 45.024 41.9916C45.1354 41.7216 45.4254 41.774 45.7383 41.774C45.9569 41.1926 45.1303 41.2772 45.6546 40.8086C45.836 40.6457 46.5078 40.3911 46.2935 40.0497C46.1992 40.0397 46.1084 40.0448 46.0313 40.0134C45.8198 39.9291 45.8548 39.7624 46.0006 39.6981C46.5734 39.4452 47.371 39.5169 47.2338 39.034C47.1595 39.0112 47.0834 38.9957 47.0134 38.9643C46.7234 38.8343 46.839 38.5004 47.3175 38.4704C47.9532 38.4304 48.4638 38.584 48.6038 38.144C48.3138 37.9411 47.8267 37.6945 48.2439 37.466C48.7681 37.1788 50.4133 37.316 50.2333 36.8103C49.449 36.6503 49.1897 36.6267 49.1897 36.481C49.1926 35.7582 52.133 36.4492 51.9102 35.4263C51.043 35.2406 51.0424 35.2386 50.8638 35.0329C50.9724 34.9958 51.0666 34.9496 51.1652 34.9353C51.4223 34.8967 52.2089 34.9894 52.7361 34.4665C52.8332 34.3694 52.9152 34.2662 52.8923 34.1233C52.7494 33.9748 52.6095 34.0881 52.4738 34.101C51.9252 34.1496 51.7554 34.2196 51.6339 33.981C51.3496 33.4239 53.6748 33.7741 55.2863 32.067C55.6306 31.7013 55.2281 31.614 54.7338 31.8326C53.9238 32.1912 52.5709 32.4795 52.1166 32.3795C51.8509 31.7123 56.0078 31.4607 56.8906 29.1735C57.4063 27.8393 55.2687 29.7016 52.6858 30.1473C52.5601 30.1688 52.4088 30.1776 52.3259 30.0162C52.6216 29.1576 56.0636 28.8638 57.1836 26.4838C57.2607 26.3195 57.3282 26.1513 57.2282 25.9342C56.1497 26.6984 55.2161 27.3924 53.149 28.3281C53.0647 28.3653 52.9677 28.436 52.8477 28.356C52.8834 28.2932 52.871 28.2605 53.1239 28.0491C56.6653 25.0948 57.0089 23.2501 56.606 23.1272C56.2375 23.0144 55.0302 24.9193 52.4431 26.6122C52.1331 26.815 50.8288 27.6403 50.5402 27.4046C50.4302 27.0174 51.2504 26.8554 52.8504 25.1669C54.949 22.9526 54.5512 21.5294 53.8298 22.5022C52.8641 23.8022 51.7301 25.0139 49.3544 26.3025C49.2629 26.3525 49.1627 26.4458 49.0084 26.3415C49.0412 26.2872 50.953 23.919 50.6016 23.3532C50.0344 23.2747 50.5105 23.8765 46.1819 26.3108C45.2019 26.8608 42.4365 28.3902 41.4079 28.8387C37.8908 30.373 35.5988 33.731 34.5859 37.3767C33.2502 42.1824 30.8908 43.2944 30.5123 42.8901C26.8466 38.9858 26.7104 36.5987 25.2333 34.9129C23.8218 33.3029 22.3788 32.4182 19.346 30.4068C15.7546 28.024 16.1624 26.9538 16.1624 28.2695C15.8824 28.0681 15.6196 27.9031 15.3839 27.7059C13.3854 26.0402 13.6373 23.4452 13.6373 22.0223C13.5566 21.9902 13.4971 21.9942 13.4503 22.0167ZM27.4626 56.8689C27.8369 57.3389 27.4784 58.6947 26.8041 59.0647C26.777 58.5719 26.5542 58.1794 26.207 57.8594C26.3956 57.3979 26.9712 56.9489 27.4626 56.8689Z"/>
</mask>
<path d="M18.2857 12C10.4124 12 4 18.4124 4 26.2857V57.7143C4 65.5876 10.4124 72 18.2857 72H49.7143C57.5876 72 64 65.5876 64 57.7143V26.2857C64 18.4124 57.5876 12 49.7143 12H18.2857ZM18.2857 14.8571H49.7143C56.0438 14.8571 61.1429 19.9562 61.1429 26.2857V57.7143C61.1429 64.0438 56.0438 69.1429 49.7143 69.1429H18.2857C11.9562 69.1429 6.85714 64.0438 6.85714 57.7143V26.2857C6.85714 19.9562 11.9562 14.8571 18.2857 14.8571ZM13.4503 22.0167C13.4035 22.0392 13.3694 22.0805 13.3415 22.1283C12.7029 23.2226 12.8218 24.7885 12.9146 26.1099C12.6318 25.8799 12.522 25.5914 12.4291 25.2171C11.9506 23.2785 12.2791 23.016 12.0134 22.9403C11.8134 23.0831 11.7608 23.3325 11.6451 24.3354C11.5165 25.4497 11.6624 26.5155 11.7567 27.6641C11.5867 27.5926 11.5052 27.4649 11.4609 27.332C11.3638 27.0406 11.2712 26.7434 11.2126 26.442C11.0398 25.552 11.2084 25.6821 10.9699 25.245C10.7713 25.515 10.7786 25.618 10.7243 27.2037C10.6329 29.8765 12.545 31.7653 12.4821 31.6596C11.935 31.4796 11.9852 31.3869 11.3438 31.0569C11.3395 31.2826 11.3373 31.2821 11.433 31.4364C12.4645 33.1135 14.6788 33.5517 12.6802 33.2974C12.7031 33.6089 12.4726 33.3997 14.4883 34.9883C13.9711 35.0426 14.2098 35.0301 13.5926 35.0301C14.2855 35.7673 15.7928 35.933 18.7656 37.2902C19.7071 37.7188 22.2367 39.3096 23.2439 40.4682C23.9139 41.2368 24.4669 42.0658 24.7254 43.0658C25.0312 44.2501 23.2392 43.9796 21.5921 45.351C21.0378 45.8124 20.6587 46.3621 20.8387 47.1507C20.0559 47.8992 20.2145 48.8363 20.8945 49.4749C20.9274 49.322 20.9382 49.2025 20.981 49.0982C21.2482 48.4596 21.3581 48.2795 21.6367 48.4481C21.6281 48.6467 21.4412 48.8272 21.5698 49.0815C21.8969 48.7458 22.2993 48.6692 22.7193 48.6406C23.9422 48.5578 24.1789 48.1927 24.5804 48.1384C27.7589 47.707 27.2909 51.4987 26.6395 52.8873C25.9438 54.3701 25.8055 54.7876 25.4983 55.8504C24.9012 57.9176 24.4887 56.7197 22.6858 56.2383C22.0587 56.0697 21.2795 56.3056 21.341 56.947C21.9052 56.7156 22.17 56.6856 22.3929 56.8242C22.0229 57.2371 21.9116 57.5415 22.0273 57.8287C22.7002 57.4158 22.7012 57.418 22.9369 57.4994C22.6627 58.0066 22.6584 58.3127 22.9342 58.4927C23.0684 58.1242 23.3642 58.0411 23.707 58.0854C24.8599 58.2368 25.3531 59.0377 26.1345 59.1205C26.2502 59.132 26.3602 59.1684 26.433 59.3298C24.8659 59.7484 24.5369 59.7976 24.1283 60.1948C23.8598 60.4562 23.9158 60.8353 24.2344 61.0653C24.3501 60.7667 24.5613 60.5837 24.8984 60.5379C24.7142 60.9765 24.7823 61.2722 25.0965 61.4308C25.1908 61.1051 25.4437 60.974 25.7494 60.8811C25.6223 61.5169 25.7344 61.8942 26.0787 62.0056C26.1558 61.527 26.4037 61.1588 26.8209 60.9174C27.1209 60.7431 27.4659 60.7256 27.803 60.6942C28.0773 60.6685 28.3029 60.7372 28.5201 60.9258C29.3672 61.6644 29.7487 61.0423 29.9459 61.5452C30.0002 61.6823 30.0163 61.8362 30.0491 61.9805C30.2334 61.8719 30.3236 61.7212 30.3365 61.4727C30.3879 60.5155 29.561 60.3101 29.0167 60.0301C28.4453 59.7358 28.5209 58.9663 28.8438 58.6406C29.0738 58.4092 29.2009 58.6259 29.3181 58.8973C29.5438 59.4202 29.2617 59.3479 29.9403 58.2779C30.1203 57.9936 30.3521 57.7482 30.6406 57.5497C30.7721 57.7468 30.8039 57.9974 31.0396 58.1189C31.2268 57.1017 31.1168 57.5189 31.4554 56.5089C31.5696 56.6132 31.6604 56.6975 31.779 56.8047C31.8176 56.7061 31.8543 56.6552 31.8571 56.6038C31.8914 55.9995 32.4581 55.2386 32.8867 55.0329C33.2939 54.8372 33.2135 55.4924 33.082 55.7695C32.5692 56.8481 31.2494 57.8967 31.8209 58.5681C31.9352 58.5567 32.0367 58.5461 32.1752 58.5318C32.2595 59.0675 32.231 59.2242 32.4682 59.2042C32.8696 59.17 32.8816 59.2634 33.0988 59.7148C33.4431 59.6448 33.6673 59.5541 33.8744 59.8041C34.0702 60.0398 34.0771 60.0493 34.3599 59.9464C34.9556 59.7307 34.8078 60.9116 35.5792 60.5045C36.5407 59.9973 36.5334 61.4476 37.4905 60.909C37.8391 60.7133 38.1585 60.7687 38.4671 60.9816C38.7385 61.1687 39.1554 61.1575 39.3711 60.9118C40.0254 60.1647 40.4522 60.9619 40.8722 60.4347C41.1765 60.0504 41.1681 60.1496 41.6395 60.2896C42.4638 60.5339 42.1048 59.6865 42.7305 59.6451C43.2719 59.6094 42.9375 59.1579 43.5089 59.1122C43.8875 59.0822 43.9195 58.8377 43.841 58.4648C43.2524 55.6506 40.2732 57.4413 36.7846 50.2199C36.8803 50.2013 36.9356 50.2151 36.9827 50.2394C38.1941 50.8451 38.3112 51.7445 39.4269 51.9916C39.6183 52.0345 39.8213 52.0814 40.0156 51.9414C39.9385 51.8128 39.8536 51.7029 39.8036 51.5815C39.7079 51.3515 39.8339 51.0811 40.3867 51.2997C40.601 51.384 40.8107 51.4758 41.0536 51.5787C41.0936 51.4801 41.1325 51.3952 41.1596 51.308C41.2853 50.9109 40.9691 50.5469 41.1791 50.3454C41.3577 50.4211 42.1913 50.9596 42.2199 50.5268C42.2884 49.5039 41.5457 48.9923 42.8114 49.3465C43.0942 48.8123 42.7173 48.3694 42.683 48.2165C42.6445 48.0465 42.7698 47.9253 42.9369 47.9682C43.1284 48.0168 43.3249 48.1857 43.4978 48.3114C43.7363 47.8228 43.5775 47.4122 43.3304 47.0279C43.5661 46.8536 43.7376 47.0351 43.9219 47.0837C44.4062 46.6008 43.0688 45.9302 43.9302 45.6217C44.1802 45.5317 44.4146 45.5821 44.7003 45.6049C44.9718 45.2449 44.5073 44.9035 44.1144 44.5335C44.2858 44.1449 44.5835 44.2156 44.865 44.2656C45.0364 43.8699 44.7776 43.7137 44.4576 43.3923C44.659 43.0552 44.9556 43.131 45.2528 43.1468C45.4656 42.3268 44.8483 42.4145 45.024 41.9916C45.1354 41.7216 45.4254 41.774 45.7383 41.774C45.9569 41.1926 45.1303 41.2772 45.6546 40.8086C45.836 40.6457 46.5078 40.3911 46.2935 40.0497C46.1992 40.0397 46.1084 40.0448 46.0313 40.0134C45.8198 39.9291 45.8548 39.7624 46.0006 39.6981C46.5734 39.4452 47.371 39.5169 47.2338 39.034C47.1595 39.0112 47.0834 38.9957 47.0134 38.9643C46.7234 38.8343 46.839 38.5004 47.3175 38.4704C47.9532 38.4304 48.4638 38.584 48.6038 38.144C48.3138 37.9411 47.8267 37.6945 48.2439 37.466C48.7681 37.1788 50.4133 37.316 50.2333 36.8103C49.449 36.6503 49.1897 36.6267 49.1897 36.481C49.1926 35.7582 52.133 36.4492 51.9102 35.4263C51.043 35.2406 51.0424 35.2386 50.8638 35.0329C50.9724 34.9958 51.0666 34.9496 51.1652 34.9353C51.4223 34.8967 52.2089 34.9894 52.7361 34.4665C52.8332 34.3694 52.9152 34.2662 52.8923 34.1233C52.7494 33.9748 52.6095 34.0881 52.4738 34.101C51.9252 34.1496 51.7554 34.2196 51.6339 33.981C51.3496 33.4239 53.6748 33.7741 55.2863 32.067C55.6306 31.7013 55.2281 31.614 54.7338 31.8326C53.9238 32.1912 52.5709 32.4795 52.1166 32.3795C51.8509 31.7123 56.0078 31.4607 56.8906 29.1735C57.4063 27.8393 55.2687 29.7016 52.6858 30.1473C52.5601 30.1688 52.4088 30.1776 52.3259 30.0162C52.6216 29.1576 56.0636 28.8638 57.1836 26.4838C57.2607 26.3195 57.3282 26.1513 57.2282 25.9342C56.1497 26.6984 55.2161 27.3924 53.149 28.3281C53.0647 28.3653 52.9677 28.436 52.8477 28.356C52.8834 28.2932 52.871 28.2605 53.1239 28.0491C56.6653 25.0948 57.0089 23.2501 56.606 23.1272C56.2375 23.0144 55.0302 24.9193 52.4431 26.6122C52.1331 26.815 50.8288 27.6403 50.5402 27.4046C50.4302 27.0174 51.2504 26.8554 52.8504 25.1669C54.949 22.9526 54.5512 21.5294 53.8298 22.5022C52.8641 23.8022 51.7301 25.0139 49.3544 26.3025C49.2629 26.3525 49.1627 26.4458 49.0084 26.3415C49.0412 26.2872 50.953 23.919 50.6016 23.3532C50.0344 23.2747 50.5105 23.8765 46.1819 26.3108C45.2019 26.8608 42.4365 28.3902 41.4079 28.8387C37.8908 30.373 35.5988 33.731 34.5859 37.3767C33.2502 42.1824 30.8908 43.2944 30.5123 42.8901C26.8466 38.9858 26.7104 36.5987 25.2333 34.9129C23.8218 33.3029 22.3788 32.4182 19.346 30.4068C15.7546 28.024 16.1624 26.9538 16.1624 28.2695C15.8824 28.0681 15.6196 27.9031 15.3839 27.7059C13.3854 26.0402 13.6373 23.4452 13.6373 22.0223C13.5566 21.9902 13.4971 21.9942 13.4503 22.0167ZM27.4626 56.8689C27.8369 57.3389 27.4784 58.6947 26.8041 59.0647C26.777 58.5719 26.5542 58.1794 26.207 57.8594C26.3956 57.3979 26.9712 56.9489 27.4626 56.8689Z" fill="black"/>
<path d="M18.2857 12C10.4124 12 4 18.4124 4 26.2857V57.7143C4 65.5876 10.4124 72 18.2857 72H49.7143C57.5876 72 64 65.5876 64 57.7143V26.2857C64 18.4124 57.5876 12 49.7143 12H18.2857ZM18.2857 14.8571H49.7143C56.0438 14.8571 61.1429 19.9562 61.1429 26.2857V57.7143C61.1429 64.0438 56.0438 69.1429 49.7143 69.1429H18.2857C11.9562 69.1429 6.85714 64.0438 6.85714 57.7143V26.2857C6.85714 19.9562 11.9562 14.8571 18.2857 14.8571ZM13.4503 22.0167C13.4035 22.0392 13.3694 22.0805 13.3415 22.1283C12.7029 23.2226 12.8218 24.7885 12.9146 26.1099C12.6318 25.8799 12.522 25.5914 12.4291 25.2171C11.9506 23.2785 12.2791 23.016 12.0134 22.9403C11.8134 23.0831 11.7608 23.3325 11.6451 24.3354C11.5165 25.4497 11.6624 26.5155 11.7567 27.6641C11.5867 27.5926 11.5052 27.4649 11.4609 27.332C11.3638 27.0406 11.2712 26.7434 11.2126 26.442C11.0398 25.552 11.2084 25.6821 10.9699 25.245C10.7713 25.515 10.7786 25.618 10.7243 27.2037C10.6329 29.8765 12.545 31.7653 12.4821 31.6596C11.935 31.4796 11.9852 31.3869 11.3438 31.0569C11.3395 31.2826 11.3373 31.2821 11.433 31.4364C12.4645 33.1135 14.6788 33.5517 12.6802 33.2974C12.7031 33.6089 12.4726 33.3997 14.4883 34.9883C13.9711 35.0426 14.2098 35.0301 13.5926 35.0301C14.2855 35.7673 15.7928 35.933 18.7656 37.2902C19.7071 37.7188 22.2367 39.3096 23.2439 40.4682C23.9139 41.2368 24.4669 42.0658 24.7254 43.0658C25.0312 44.2501 23.2392 43.9796 21.5921 45.351C21.0378 45.8124 20.6587 46.3621 20.8387 47.1507C20.0559 47.8992 20.2145 48.8363 20.8945 49.4749C20.9274 49.322 20.9382 49.2025 20.981 49.0982C21.2482 48.4596 21.3581 48.2795 21.6367 48.4481C21.6281 48.6467 21.4412 48.8272 21.5698 49.0815C21.8969 48.7458 22.2993 48.6692 22.7193 48.6406C23.9422 48.5578 24.1789 48.1927 24.5804 48.1384C27.7589 47.707 27.2909 51.4987 26.6395 52.8873C25.9438 54.3701 25.8055 54.7876 25.4983 55.8504C24.9012 57.9176 24.4887 56.7197 22.6858 56.2383C22.0587 56.0697 21.2795 56.3056 21.341 56.947C21.9052 56.7156 22.17 56.6856 22.3929 56.8242C22.0229 57.2371 21.9116 57.5415 22.0273 57.8287C22.7002 57.4158 22.7012 57.418 22.9369 57.4994C22.6627 58.0066 22.6584 58.3127 22.9342 58.4927C23.0684 58.1242 23.3642 58.0411 23.707 58.0854C24.8599 58.2368 25.3531 59.0377 26.1345 59.1205C26.2502 59.132 26.3602 59.1684 26.433 59.3298C24.8659 59.7484 24.5369 59.7976 24.1283 60.1948C23.8598 60.4562 23.9158 60.8353 24.2344 61.0653C24.3501 60.7667 24.5613 60.5837 24.8984 60.5379C24.7142 60.9765 24.7823 61.2722 25.0965 61.4308C25.1908 61.1051 25.4437 60.974 25.7494 60.8811C25.6223 61.5169 25.7344 61.8942 26.0787 62.0056C26.1558 61.527 26.4037 61.1588 26.8209 60.9174C27.1209 60.7431 27.4659 60.7256 27.803 60.6942C28.0773 60.6685 28.3029 60.7372 28.5201 60.9258C29.3672 61.6644 29.7487 61.0423 29.9459 61.5452C30.0002 61.6823 30.0163 61.8362 30.0491 61.9805C30.2334 61.8719 30.3236 61.7212 30.3365 61.4727C30.3879 60.5155 29.561 60.3101 29.0167 60.0301C28.4453 59.7358 28.5209 58.9663 28.8438 58.6406C29.0738 58.4092 29.2009 58.6259 29.3181 58.8973C29.5438 59.4202 29.2617 59.3479 29.9403 58.2779C30.1203 57.9936 30.3521 57.7482 30.6406 57.5497C30.7721 57.7468 30.8039 57.9974 31.0396 58.1189C31.2268 57.1017 31.1168 57.5189 31.4554 56.5089C31.5696 56.6132 31.6604 56.6975 31.779 56.8047C31.8176 56.7061 31.8543 56.6552 31.8571 56.6038C31.8914 55.9995 32.4581 55.2386 32.8867 55.0329C33.2939 54.8372 33.2135 55.4924 33.082 55.7695C32.5692 56.8481 31.2494 57.8967 31.8209 58.5681C31.9352 58.5567 32.0367 58.5461 32.1752 58.5318C32.2595 59.0675 32.231 59.2242 32.4682 59.2042C32.8696 59.17 32.8816 59.2634 33.0988 59.7148C33.4431 59.6448 33.6673 59.5541 33.8744 59.8041C34.0702 60.0398 34.0771 60.0493 34.3599 59.9464C34.9556 59.7307 34.8078 60.9116 35.5792 60.5045C36.5407 59.9973 36.5334 61.4476 37.4905 60.909C37.8391 60.7133 38.1585 60.7687 38.4671 60.9816C38.7385 61.1687 39.1554 61.1575 39.3711 60.9118C40.0254 60.1647 40.4522 60.9619 40.8722 60.4347C41.1765 60.0504 41.1681 60.1496 41.6395 60.2896C42.4638 60.5339 42.1048 59.6865 42.7305 59.6451C43.2719 59.6094 42.9375 59.1579 43.5089 59.1122C43.8875 59.0822 43.9195 58.8377 43.841 58.4648C43.2524 55.6506 40.2732 57.4413 36.7846 50.2199C36.8803 50.2013 36.9356 50.2151 36.9827 50.2394C38.1941 50.8451 38.3112 51.7445 39.4269 51.9916C39.6183 52.0345 39.8213 52.0814 40.0156 51.9414C39.9385 51.8128 39.8536 51.7029 39.8036 51.5815C39.7079 51.3515 39.8339 51.0811 40.3867 51.2997C40.601 51.384 40.8107 51.4758 41.0536 51.5787C41.0936 51.4801 41.1325 51.3952 41.1596 51.308C41.2853 50.9109 40.9691 50.5469 41.1791 50.3454C41.3577 50.4211 42.1913 50.9596 42.2199 50.5268C42.2884 49.5039 41.5457 48.9923 42.8114 49.3465C43.0942 48.8123 42.7173 48.3694 42.683 48.2165C42.6445 48.0465 42.7698 47.9253 42.9369 47.9682C43.1284 48.0168 43.3249 48.1857 43.4978 48.3114C43.7363 47.8228 43.5775 47.4122 43.3304 47.0279C43.5661 46.8536 43.7376 47.0351 43.9219 47.0837C44.4062 46.6008 43.0688 45.9302 43.9302 45.6217C44.1802 45.5317 44.4146 45.5821 44.7003 45.6049C44.9718 45.2449 44.5073 44.9035 44.1144 44.5335C44.2858 44.1449 44.5835 44.2156 44.865 44.2656C45.0364 43.8699 44.7776 43.7137 44.4576 43.3923C44.659 43.0552 44.9556 43.131 45.2528 43.1468C45.4656 42.3268 44.8483 42.4145 45.024 41.9916C45.1354 41.7216 45.4254 41.774 45.7383 41.774C45.9569 41.1926 45.1303 41.2772 45.6546 40.8086C45.836 40.6457 46.5078 40.3911 46.2935 40.0497C46.1992 40.0397 46.1084 40.0448 46.0313 40.0134C45.8198 39.9291 45.8548 39.7624 46.0006 39.6981C46.5734 39.4452 47.371 39.5169 47.2338 39.034C47.1595 39.0112 47.0834 38.9957 47.0134 38.9643C46.7234 38.8343 46.839 38.5004 47.3175 38.4704C47.9532 38.4304 48.4638 38.584 48.6038 38.144C48.3138 37.9411 47.8267 37.6945 48.2439 37.466C48.7681 37.1788 50.4133 37.316 50.2333 36.8103C49.449 36.6503 49.1897 36.6267 49.1897 36.481C49.1926 35.7582 52.133 36.4492 51.9102 35.4263C51.043 35.2406 51.0424 35.2386 50.8638 35.0329C50.9724 34.9958 51.0666 34.9496 51.1652 34.9353C51.4223 34.8967 52.2089 34.9894 52.7361 34.4665C52.8332 34.3694 52.9152 34.2662 52.8923 34.1233C52.7494 33.9748 52.6095 34.0881 52.4738 34.101C51.9252 34.1496 51.7554 34.2196 51.6339 33.981C51.3496 33.4239 53.6748 33.7741 55.2863 32.067C55.6306 31.7013 55.2281 31.614 54.7338 31.8326C53.9238 32.1912 52.5709 32.4795 52.1166 32.3795C51.8509 31.7123 56.0078 31.4607 56.8906 29.1735C57.4063 27.8393 55.2687 29.7016 52.6858 30.1473C52.5601 30.1688 52.4088 30.1776 52.3259 30.0162C52.6216 29.1576 56.0636 28.8638 57.1836 26.4838C57.2607 26.3195 57.3282 26.1513 57.2282 25.9342C56.1497 26.6984 55.2161 27.3924 53.149 28.3281C53.0647 28.3653 52.9677 28.436 52.8477 28.356C52.8834 28.2932 52.871 28.2605 53.1239 28.0491C56.6653 25.0948 57.0089 23.2501 56.606 23.1272C56.2375 23.0144 55.0302 24.9193 52.4431 26.6122C52.1331 26.815 50.8288 27.6403 50.5402 27.4046C50.4302 27.0174 51.2504 26.8554 52.8504 25.1669C54.949 22.9526 54.5512 21.5294 53.8298 22.5022C52.8641 23.8022 51.7301 25.0139 49.3544 26.3025C49.2629 26.3525 49.1627 26.4458 49.0084 26.3415C49.0412 26.2872 50.953 23.919 50.6016 23.3532C50.0344 23.2747 50.5105 23.8765 46.1819 26.3108C45.2019 26.8608 42.4365 28.3902 41.4079 28.8387C37.8908 30.373 35.5988 33.731 34.5859 37.3767C33.2502 42.1824 30.8908 43.2944 30.5123 42.8901C26.8466 38.9858 26.7104 36.5987 25.2333 34.9129C23.8218 33.3029 22.3788 32.4182 19.346 30.4068C15.7546 28.024 16.1624 26.9538 16.1624 28.2695C15.8824 28.0681 15.6196 27.9031 15.3839 27.7059C13.3854 26.0402 13.6373 23.4452 13.6373 22.0223C13.5566 21.9902 13.4971 21.9942 13.4503 22.0167ZM27.4626 56.8689C27.8369 57.3389 27.4784 58.6947 26.8041 59.0647C26.777 58.5719 26.5542 58.1794 26.207 57.8594C26.3956 57.3979 26.9712 56.9489 27.4626 56.8689Z" stroke="black" stroke-width="2" mask="url(#path-1-inside-1_608_20)"/>
</g>
<path d="M83.8166 34.96V37.7H80.0966V49H76.6766V37.7H72.9566V34.96H83.8166ZM92.693 49L89.773 43.7H88.953V49H85.533V34.96H91.273C92.3796 34.96 93.3196 35.1533 94.093 35.54C94.8796 35.9267 95.4663 36.46 95.853 37.14C96.2396 37.8067 96.433 38.5533 96.433 39.38C96.433 40.3133 96.1663 41.1467 95.633 41.88C95.113 42.6133 94.3396 43.1333 93.313 43.44L96.553 49H92.693ZM88.953 41.28H91.073C91.6996 41.28 92.1663 41.1267 92.473 40.82C92.793 40.5133 92.953 40.08 92.953 39.52C92.953 38.9867 92.793 38.5667 92.473 38.26C92.1663 37.9533 91.6996 37.8 91.073 37.8H88.953V41.28ZM107.32 46.52H102.08L101.24 49H97.6598L102.74 34.96H106.7L111.78 49H108.16L107.32 46.52ZM106.44 43.88L104.7 38.74L102.98 43.88H106.44ZM118.586 34.96C120.066 34.96 121.359 35.2533 122.466 35.84C123.573 36.4267 124.426 37.2533 125.026 38.32C125.639 39.3733 125.946 40.5933 125.946 41.98C125.946 43.3533 125.639 44.5733 125.026 45.64C124.426 46.7067 123.566 47.5333 122.446 48.12C121.339 48.7067 120.053 49 118.586 49H113.326V34.96H118.586ZM118.366 46.04C119.659 46.04 120.666 45.6867 121.386 44.98C122.106 44.2733 122.466 43.2733 122.466 41.98C122.466 40.6867 122.106 39.68 121.386 38.96C120.666 38.24 119.659 37.88 118.366 37.88H116.746V46.04H118.366ZM131.277 37.7V40.54H135.857V43.18H131.277V46.26H136.457V49H127.857V34.96H136.457V37.7H131.277ZM155.476 49H152.056L146.336 40.34V49H142.916V34.96H146.336L152.056 43.66V34.96H155.476V49ZM166.695 46.52H161.455L160.615 49H157.035L162.115 34.96H166.075L171.155 49H167.535L166.695 46.52ZM165.815 43.88L164.075 38.74L162.355 43.88H165.815ZM182.801 34.96V37.7H179.081V49H175.661V37.7H171.941V34.96H182.801ZM187.937 34.96V49H184.517V34.96H187.937ZM197.056 49.14C195.736 49.14 194.522 48.8333 193.416 48.22C192.322 47.6067 191.449 46.7533 190.796 45.66C190.156 44.5533 189.836 43.3133 189.836 41.94C189.836 40.5667 190.156 39.3333 190.796 38.24C191.449 37.1467 192.322 36.2933 193.416 35.68C194.522 35.0667 195.736 34.76 197.056 34.76C198.376 34.76 199.582 35.0667 200.676 35.68C201.782 36.2933 202.649 37.1467 203.276 38.24C203.916 39.3333 204.236 40.5667 204.236 41.94C204.236 43.3133 203.916 44.5533 203.276 45.66C202.636 46.7533 201.769 47.6067 200.676 48.22C199.582 48.8333 198.376 49.14 197.056 49.14ZM197.056 46.02C198.176 46.02 199.069 45.6467 199.736 44.9C200.416 44.1533 200.756 43.1667 200.756 41.94C200.756 40.7 200.416 39.7133 199.736 38.98C199.069 38.2333 198.176 37.86 197.056 37.86C195.922 37.86 195.016 38.2267 194.336 38.96C193.669 39.6933 193.336 40.6867 193.336 41.94C193.336 43.18 193.669 44.1733 194.336 44.92C195.016 45.6533 195.922 46.02 197.056 46.02ZM218.698 49H215.278L209.558 40.34V49H206.138V34.96H209.558L215.278 43.66V34.96H218.698V49Z" fill="black"/>
<defs>
<filter id="filter0_d_608_20" x="0" y="12" width="68" height="68" filterUnits="userSpaceOnUse" color-interpolation-filters="sRGB">
<feFlood flood-opacity="0" result="BackgroundImageFix"/>
<feColorMatrix in="SourceAlpha" type="matrix" values="0 0 0 0 0 0 0 0 0 0 0 0 0 0 0 0 0 0 127 0" result="hardAlpha"/>
<feOffset dy="4"/>
<feGaussianBlur stdDeviation="2"/>
<feComposite in2="hardAlpha" operator="out"/>
<feColorMatrix type="matrix" values="0 0 0 0 0 0 0 0 0 0 0 0 0 0 0 0 0 0 0.25 0"/>
<feBlend mode="normal" in2="BackgroundImageFix" result="effect1_dropShadow_608_20"/>
<feBlend mode="normal" in="SourceGraphic" in2="effect1_dropShadow_608_20" result="shape"/>
</filter>
</defs>
</svg>
