<svg width="147" height="16" viewBox="0 0 147 16" fill="none" xmlns="http://www.w3.org/2000/svg">
<path d="M11.34 0.96V3.7H7.62V15H4.2V3.7H0.48V0.96H11.34ZM20.2164 15L17.2964 9.7H16.4764V15H13.0564V0.96H18.7964C19.9031 0.96 20.8431 1.15333 21.6164 1.54C22.4031 1.92667 22.9897 2.46 23.3764 3.14C23.7631 3.80667 23.9564 4.55333 23.9564 5.38C23.9564 6.31333 23.6897 7.14667 23.1564 7.88C22.6364 8.61333 21.8631 9.13333 20.8364 9.44L24.0764 15H20.2164ZM16.4764 7.28H18.5964C19.2231 7.28 19.6897 7.12667 19.9964 6.82C20.3164 6.51333 20.4764 6.08 20.4764 5.52C20.4764 4.98667 20.3164 4.56667 19.9964 4.26C19.6897 3.95333 19.2231 3.8 18.5964 3.8H16.4764V7.28ZM34.8433 12.52H29.6033L28.7633 15H25.1833L30.2633 0.96H34.2233L39.3033 15H35.6833L34.8433 12.52ZM33.9633 9.88L32.2233 4.74L30.5033 9.88H33.9633ZM46.1094 0.96C47.5894 0.96 48.8827 1.25333 49.9894 1.84C51.096 2.42667 51.9494 3.25333 52.5494 4.32C53.1627 5.37333 53.4694 6.59333 53.4694 7.98C53.4694 9.35333 53.1627 10.5733 52.5494 11.64C51.9494 12.7067 51.0894 13.5333 49.9694 14.12C48.8627 14.7067 47.576 15 46.1094 15H40.8494V0.96H46.1094ZM45.8894 12.04C47.1827 12.04 48.1894 11.6867 48.9094 10.98C49.6294 10.2733 49.9894 9.27333 49.9894 7.98C49.9894 6.68667 49.6294 5.68 48.9094 4.96C48.1894 4.24 47.1827 3.88 45.8894 3.88H44.2694V12.04H45.8894ZM58.8006 3.7V6.54H63.3806V9.18H58.8006V12.26H63.9806V15H55.3806V0.96H63.9806V3.7H58.8006ZM82.9992 15H79.5792L73.8592 6.34V15H70.4392V0.96H73.8592L79.5792 9.66V0.96H82.9992V15ZM94.2183 12.52H88.9783L88.1383 15H84.5583L89.6383 0.96H93.5983L98.6783 15H95.0583L94.2183 12.52ZM93.3383 9.88L91.5983 4.74L89.8783 9.88H93.3383ZM110.324 0.96V3.7H106.604V15H103.184V3.7H99.4644V0.96H110.324ZM115.461 0.96V15H112.041V0.96H115.461ZM124.579 15.14C123.259 15.14 122.046 14.8333 120.939 14.22C119.846 13.6067 118.973 12.7533 118.319 11.66C117.679 10.5533 117.359 9.31333 117.359 7.94C117.359 6.56667 117.679 5.33333 118.319 4.24C118.973 3.14667 119.846 2.29333 120.939 1.68C122.046 1.06667 123.259 0.76 124.579 0.76C125.899 0.76 127.106 1.06667 128.199 1.68C129.306 2.29333 130.173 3.14667 130.799 4.24C131.439 5.33333 131.759 6.56667 131.759 7.94C131.759 9.31333 131.439 10.5533 130.799 11.66C130.159 12.7533 129.293 13.6067 128.199 14.22C127.106 14.8333 125.899 15.14 124.579 15.14ZM124.579 12.02C125.699 12.02 126.593 11.6467 127.259 10.9C127.939 10.1533 128.279 9.16667 128.279 7.94C128.279 6.7 127.939 5.71333 127.259 4.98C126.593 4.23333 125.699 3.86 124.579 3.86C123.446 3.86 122.539 4.22667 121.859 4.96C121.193 5.69333 120.859 6.68667 120.859 7.94C120.859 9.18 121.193 10.1733 121.859 10.92C122.539 11.6533 123.446 12.02 124.579 12.02ZM146.222 15H142.802L137.082 6.34V15H133.662V0.96H137.082L142.802 9.66V0.96H146.222V15Z" fill="black"/>
</svg>
