<?xml version="1.0" standalone="no"?>
<!DOCTYPE svg PUBLIC "-//W3C//DTD SVG 20010904//EN"
 "http://www.w3.org/TR/2001/REC-SVG-20010904/DTD/svg10.dtd">
<svg version="1.0" xmlns="http://www.w3.org/2000/svg"
width="300" height="400" viewBox="0 0 174 26" fill="none" >
<metadata>

</metadata>
<g transform="translate(0.000000,490.000000) scale(0.100000,-0.100000)"
fill="#000000" stroke="none">
<path d="M362 3747 c-16 -7 -21 -15 -16 -26 4 -9 12 -38 18 -66 6 -27 14 -54
17 -60 3 -5 12 -39 19 -75 7 -36 17 -69 21 -75 5 -5 9 -17 9 -26 0 -21 46
-170 66 -216 8 -17 14 -36 14 -43 0 -6 9 -30 19 -53 11 -24 23 -55 26 -70 4
-15 11 -27 16 -27 5 0 9 -5 9 -12 0 -11 82 -158 104 -186 6 -8 31 -35 56 -61
79 -81 78 -81 411 -81 190 0 290 -3 283 -10 -5 -5 -18 -11 -29 -13 -11 -1 -24
-5 -30 -9 -48 -28 -324 -64 -421 -54 -63 6 -124 -1 -124 -15 0 -10 193 -201
234 -232 16 -12 45 -36 65 -53 42 -36 167 -116 262 -167 129 -69 295 -113 477
-125 30 -3 28 -23 -8 -57 -19 -18 -27 -32 -21 -38 9 -9 100 -29 131 -28 8 0
62 -5 120 -10 81 -7 123 -6 185 4 l80 14 27 -30 c62 -66 21 -186 -115 -333
-35 -38 -76 -75 -90 -83 -56 -30 -42 -57 58 -109 60 -31 201 -82 227 -82 10 0
18 -3 18 -8 0 -10 119 -17 250 -15 138 2 254 31 395 99 82 40 120 68 112 81
-3 5 -34 23 -69 41 -58 29 -148 103 -148 121 0 4 -9 18 -20 30 -10 13 -22 44
-25 69 -3 26 -9 66 -14 90 -7 34 -5 51 10 81 10 21 25 41 32 44 8 3 103 6 213
6 180 1 267 5 301 16 16 5 -1 50 -30 78 -32 32 -16 42 69 43 103 1 149 9 269
51 102 35 237 102 335 165 30 19 58 35 62 34 4 0 13 6 20 15 7 9 40 36 73 61
98 74 221 195 210 206 -5 5 -66 22 -135 36 -195 42 -214 46 -256 61 l-39 14
55 1 c440 11 416 8 470 68 109 122 218 324 289 538 44 129 47 144 31 144 -5 0
-10 -7 -10 -16 0 -22 -50 -176 -61 -188 -5 -6 -9 -16 -9 -24 0 -8 -7 -30 -16
-50 -94 -209 -166 -325 -244 -395 l-49 -44 -143 -6 c-79 -4 -217 -7 -308 -8
-91 0 -183 -4 -205 -8 -22 -5 -35 -9 -30 -10 25 -2 622 -113 635 -118 31 -10
-220 -221 -380 -319 -167 -102 -380 -179 -530 -190 l-75 -6 -104 81 c-57 45
-105 81 -108 81 -14 0 114 -169 173 -228 8 -7 18 -22 24 -32 8 -15 4 -18 -28
-24 -20 -3 -131 -6 -245 -6 -233 0 -253 -5 -281 -64 -9 -19 -16 -48 -16 -66 0
-46 27 -144 52 -187 32 -56 114 -131 182 -165 l59 -30 -29 -19 c-48 -31 -190
-89 -272 -110 -166 -43 -367 -35 -537 22 -90 30 -228 98 -223 110 2 3 28 28
58 54 83 73 192 217 195 257 0 3 3 10 7 14 5 4 8 29 8 55 0 37 -6 55 -26 78
-37 44 -57 53 -91 40 -49 -19 -409 -5 -445 17 -4 3 11 21 33 41 43 39 175 230
165 240 -3 3 -49 -35 -103 -85 l-98 -90 -90 9 c-274 28 -547 175 -823 443
-111 107 -113 102 41 102 140 1 242 13 366 45 89 23 231 71 231 79 0 3 -168 5
-373 5 l-374 0 -43 30 c-62 43 -123 124 -183 245 -84 169 -136 314 -187 520
-17 69 -35 139 -40 156 -6 17 -10 40 -10 53 l0 22 33 -23 c17 -12 41 -30 52
-39 38 -32 197 -118 303 -164 235 -103 532 -194 882 -270 118 -25 240 -52 270
-58 54 -12 55 -13 61 -52 12 -76 39 -143 88 -218 87 -133 176 -201 274 -211
25 -2 50 -6 55 -10 5 -3 19 29 31 72 56 196 104 337 136 398 19 37 35 75 35
85 0 27 16 32 49 14 17 -8 45 -15 64 -15 18 0 54 -10 79 -23 36 -18 59 -23
107 -20 55 3 65 0 87 -22 20 -20 25 -33 22 -68 l-3 -42 -49 3 -49 4 7 -84 c9
-107 33 -223 54 -268 21 -44 48 -47 117 -14 131 62 254 227 311 417 13 43 22
58 38 62 12 2 66 11 121 21 226 37 559 133 830 239 66 25 230 101 365 168 135
67 249 123 253 125 12 6 -27 -183 -58 -285 -5 -15 -3 -23 4 -23 6 0 11 9 11
19 0 11 4 22 8 25 5 3 14 38 21 78 7 40 19 92 27 116 8 23 14 54 14 68 0 25
-2 26 -36 20 -19 -4 -44 -14 -54 -23 -55 -47 -457 -236 -655 -308 -289 -105
-637 -197 -798 -211 l-79 -7 -18 -41 c-10 -23 -29 -69 -41 -103 -13 -35 -28
-63 -33 -63 -5 0 -17 -7 -26 -15 -30 -27 -41 4 -46 122 -3 59 -9 112 -13 117
-5 6 -15 31 -22 56 -22 75 -59 131 -134 206 -130 129 -275 178 -463 155 -222
-27 -422 -212 -461 -427 -12 -65 -20 -304 -10 -298 11 6 17 -33 9 -47 -12 -18
-40 6 -40 33 0 11 -8 22 -19 25 -11 3 -23 20 -30 44 -7 21 -16 39 -20 39 -9 0
-31 64 -49 140 -9 38 3 33 -172 69 -453 94 -855 213 -1095 326 -129 60 -294
165 -330 210 -7 10 -16 10 -33 2z"/>
<path d="M644 3288 c14 -126 83 -339 121 -377 14 -14 16 -14 13 -1 -2 8 3 14
10 12 8 -1 11 2 7 8 -3 6 -10 8 -15 5 -5 -3 -11 -1 -15 4 -3 6 6 8 21 5 19 -3
24 -1 18 8 -6 9 -3 9 9 -1 10 -8 20 -11 24 -7 3 3 1 6 -4 6 -6 0 -10 8 -8 18
1 9 8 16 14 15 6 -2 17 -4 23 -5 17 -4 22 40 7 60 -11 14 -11 15 0 5 8 -7 23
-8 41 -3 16 5 31 5 35 2 4 -4 6 -2 5 3 -4 20 0 36 9 31 11 -7 35 20 28 32 -3
4 -1 14 5 22 8 12 9 12 4 -2 -3 -10 0 -20 6 -24 6 -4 8 -3 5 2 -3 6 -2 16 4
24 7 13 9 13 9 0 0 -13 1 -13 10 0 7 12 3 16 -18 21 -24 6 -23 7 11 8 28 1 36
-2 31 -11 -5 -10 -4 -10 6 -1 10 9 10 15 2 26 -7 8 -10 17 -7 20 3 4 2 5 -2 2
-3 -3 -11 -1 -17 4 -6 4 -20 11 -30 15 -15 5 -17 4 -8 -7 9 -10 8 -14 -3 -14
-8 0 -12 3 -10 7 9 14 -14 28 -90 54 -44 16 -117 44 -163 62 -45 19 -85 34
-88 34 -4 0 -3 -28 0 -62z"/>
<path d="M12502 3199 c-31 -12 -102 -71 -102 -85 0 -6 -6 -17 -14 -23 -8 -7
-17 -40 -21 -74 -9 -76 -9 -766 0 -822 9 -56 29 -95 62 -127 40 -38 78 -50
164 -51 94 -1 140 20 186 86 50 71 55 124 51 553 l-3 379 -29 56 c-30 58 -70
93 -127 109 -42 12 -136 12 -167 -1z m170 -21 c46 -14 102 -74 120 -127 16
-50 23 -727 8 -822 -13 -90 -48 -145 -110 -177 -38 -20 -56 -23 -116 -19 -128
7 -177 60 -195 212 -15 124 -7 759 10 805 45 116 156 166 283 128z"/>
<path d="M12563 3120 c-52 -8 -77 -30 -98 -84 -14 -36 -15 -96 -13 -441 3
-394 3 -401 25 -436 27 -43 59 -59 119 -59 58 0 96 26 118 80 14 35 16 94 16
423 0 226 -4 397 -10 418 -20 71 -81 110 -157 99z m75 -21 c20 -7 32 -19 37
-37 4 -15 12 -30 18 -34 16 -10 23 -249 17 -574 l-5 -261 -27 -35 c-50 -66
-131 -63 -176 5 l-27 42 -3 387 c-2 247 1 402 8 426 21 81 77 109 158 81z"/>
<path d="M5685 3190 c-11 -18 -13 -170 -2 -177 6 -3 39 -5 74 -4 113 4 102 59
102 -491 0 -373 2 -483 12 -489 14 -8 111 -10 151 -3 l28 6 2 486 3 487 79 2
c50 1 84 7 91 15 7 9 9 40 6 93 l-6 80 -267 3 c-181 1 -269 -1 -273 -8z m533
-87 l3 -72 -93 -3 -93 -3 -3 -493 -2 -493 -78 3 -77 3 -2 490 -2 490 -90 3
-91 3 0 68 c0 37 3 71 7 74 4 4 122 6 262 5 l256 -3 3 -72z"/>
<path d="M6446 3191 c-7 -11 -8 -1152 -1 -1159 8 -8 135 -13 162 -7 23 5 23 6
25 263 l3 257 45 -2 c36 -2 50 -8 67 -30 20 -24 23 -41 25 -123 l2 -95 3 94
c4 98 -7 145 -34 155 -8 3 -39 9 -69 12 l-54 7 -2 -259 -3 -259 -77 -3 -78 -3
0 572 0 571 163 -4 c145 -3 167 -6 210 -27 29 -14 61 -40 78 -64 16 -22 29
-33 29 -24 0 23 -48 76 -89 96 -20 10 -60 24 -89 30 -63 13 -308 15 -316 2z"/>
<path d="M8040 3185 c-9 -11 -12 -148 -12 -580 -1 -311 2 -568 6 -572 3 -3 81
-6 172 -5 180 2 215 10 281 66 40 34 86 125 81 163 -3 24 -6 19 -22 -31 -24
-79 -57 -120 -124 -153 -52 -26 -66 -28 -214 -31 l-157 -4 -5 23 c-3 13 -4
269 -3 569 l2 545 165 0 c159 0 167 -1 220 -27 66 -33 92 -64 119 -148 19 -58
21 -89 22 -384 1 -198 4 -306 10 -281 14 71 11 531 -6 623 -32 184 -126 242
-393 242 -102 0 -132 -3 -142 -15z"/>
<path d="M8862 3188 c-11 -14 -16 -35 -12 -58 1 -8 5 -1 9 15 l6 30 213 3 212
2 0 -75 0 -74 -131 -3 -130 -3 0 -150 0 -150 120 -3 c138 -3 135 -1 129 -98
l-3 -49 -122 -3 -123 -3 0 -189 0 -190 141 0 140 0 -6 -57 c-12 -103 12 -94
-228 -91 l-212 3 -5 225 -6 225 -3 -165 c-4 -237 -3 -282 6 -291 4 -4 106 -9
226 -10 241 -3 236 -4 237 61 0 19 3 52 6 72 l7 37 -144 3 -144 3 -3 155 c-1
85 -1 164 2 175 5 19 11 20 88 15 46 -3 99 -3 118 0 l35 5 3 78 c4 108 3 109
-130 105 -91 -2 -108 -1 -109 12 0 8 -1 69 -2 135 l-2 120 119 3 c65 1 126 6
135 11 13 8 15 22 11 92 l-5 84 -216 3 c-165 2 -219 -1 -227 -10z"/>
<path d="M9960 3128 c-1 -678 -1 -1075 -1 -1085 1 -18 76 -17 91 2 9 10 11
105 11 365 -1 350 3 435 21 424 11 -7 3 47 -18 121 -23 82 -35 88 -27 15 4
-36 7 -258 8 -495 l0 -430 -35 0 -35 0 0 565 0 565 45 0 44 0 24 -80 c13 -44
31 -105 40 -135 8 -30 18 -59 22 -65 4 -5 12 -37 19 -70 7 -33 17 -64 21 -70
4 -5 11 -29 15 -52 4 -24 11 -43 17 -43 6 0 7 7 3 18 -4 9 -13 44 -20 77 -7
33 -19 81 -28 108 -9 26 -20 73 -23 105 -4 31 -12 64 -19 72 -7 8 -16 31 -20
50 -4 19 -11 40 -15 45 -5 6 -10 21 -12 35 -3 23 -7 25 -65 28 l-63 3 0 -73z"/>
<path d="M10330 3185 c-10 -12 -13 -101 -13 -377 1 -200 -3 -372 -8 -383 -8
-20 -8 -20 -8 1 -1 11 -5 24 -9 30 -5 5 -14 38 -20 74 -12 67 -31 120 -44 120
-11 0 -10 -14 6 -62 8 -24 17 -59 21 -78 4 -19 11 -41 15 -50 5 -8 22 -67 38
-130 l31 -115 -4 471 c-2 258 0 476 4 483 5 7 21 11 37 9 20 -2 30 -10 35 -28
6 -21 7 -20 8 13 1 37 1 37 -38 37 -22 0 -44 -6 -51 -15z"/>
<path d="M10863 3188 c-10 -13 -16 -44 -33 -168 -4 -36 -16 -101 -25 -145 -30
-149 -42 -235 -34 -240 13 -8 17 6 24 90 4 44 11 85 15 90 5 6 11 37 15 70 4
33 13 89 20 125 7 36 13 72 13 80 1 8 5 31 9 50 8 33 11 35 56 38 32 2 49 -1
52 -10 7 -19 55 -282 66 -368 6 -41 15 -79 20 -84 12 -13 11 2 -2 84 -6 36
-19 119 -29 185 -35 223 -31 215 -105 215 -30 0 -57 -5 -62 -12z"/>
<path d="M11277 3193 c-4 -3 -7 -28 -7 -55 l0 -48 95 0 95 0 1 -382 c1 -211 1
-445 1 -521 -2 -158 3 -170 65 -165 l38 3 5 530 5 530 65 -3 c36 -2 77 1 93 7
23 9 27 16 27 49 0 21 -5 43 -12 50 -13 13 -459 18 -471 5z m453 -48 l0 -35
-90 0 -90 0 0 -535 0 -535 -35 0 -35 0 0 535 0 535 -95 0 -95 0 0 28 c0 16 3
32 7 35 3 4 102 7 220 7 l213 0 0 -35z"/>
<path d="M11967 3178 c-3 -13 -6 -241 -6 -508 -1 -267 -4 -515 -7 -551 -5 -55
-3 -68 12 -83 36 -37 133 -1 119 44 -3 9 -7 260 -9 558 -3 298 -7 546 -11 552
-3 5 -26 10 -50 10 -36 0 -44 -3 -48 -22z m88 -568 l0 -565 -35 0 -35 0 -3
555 c-1 305 0 561 3 568 3 8 17 12 37 10 l33 -3 0 -565z"/>
<path d="M13492 3187 c-12 -14 -24 -511 -13 -567 3 -19 8 98 11 260 l5 295 33
3 32 3 0 -570 0 -571 -40 0 c-33 0 -42 4 -49 23 -11 29 -127 437 -186 652 -78
288 -84 310 -88 304 -1 -2 -1 -130 1 -284 5 -320 20 -354 31 -66 l7 176 12
-75 c7 -41 24 -111 39 -155 14 -44 29 -96 34 -115 4 -19 17 -71 29 -115 11
-44 25 -97 31 -119 5 -21 16 -51 24 -66 12 -24 25 -70 41 -144 5 -27 7 -28 72
-33 44 -4 60 -2 63 8 2 8 3 274 1 592 l-3 577 -38 0 c-21 0 -43 -6 -49 -13z"/>
<path d="M10916 3039 c-7 -31 -38 -246 -41 -280 -1 -14 -4 -30 -7 -35 -3 -5
-9 -40 -13 -79 -3 -38 -9 -80 -12 -92 -5 -23 -3 -23 81 -23 l86 0 0 33 c0 19
-3 37 -7 41 -5 4 -8 11 -9 14 0 4 -4 40 -9 80 -4 40 -11 75 -15 77 -10 6 -2
-104 12 -168 6 -26 7 -51 4 -55 -4 -4 -33 -7 -64 -7 -51 0 -57 2 -55 20 20
171 26 211 34 213 5 2 9 10 9 17 0 7 11 16 25 19 14 4 25 13 25 21 0 25 -30
219 -35 223 -2 2 -6 -6 -9 -19z"/>
<path d="M8200 2609 l0 -431 65 4 c58 3 69 8 98 36 l32 32 3 345 c2 309 1 349
-14 381 -21 44 -63 64 -134 64 l-50 0 0 -431z m141 395 c15 -7 30 -26 34 -41
12 -48 18 -562 6 -642 -12 -93 -33 -117 -108 -127 l-53 -7 0 415 c0 228 3 417
6 420 8 9 86 -3 115 -18z"/>
<path d="M7480 2967 c-1 -57 -23 -266 -30 -287 -5 -14 -12 -57 -15 -96 l-7
-71 62 3 c35 2 65 5 67 8 3 2 0 13 -6 23 -10 17 -10 17 -11 1 0 -15 -9 -18
-51 -18 -39 0 -50 3 -46 13 3 8 11 58 18 113 7 54 15 90 17 79 3 -21 39 -51
49 -41 7 7 -27 258 -38 276 -7 12 -8 12 -9 -3z"/>
<path d="M10094 2795 c26 -132 40 -191 46 -200 8 -11 20 -56 27 -100 2 -16 10
-48 18 -70 28 -79 84 -271 91 -310 12 -69 29 -85 89 -85 39 0 54 4 59 16 8 22
7 265 -2 349 -6 56 -8 28 -12 -140 l-5 -210 -46 -3 -46 -3 -12 58 c-7 32 -16
63 -20 68 -4 6 -13 37 -20 70 -7 33 -17 65 -21 70 -4 6 -11 28 -15 50 -8 46
-82 310 -95 340 -5 11 -12 38 -15 60 -3 22 -11 47 -16 55 -8 11 -9 7 -5 -15z"/>
<path d="M10816 2414 c-3 -26 -6 -61 -6 -78 0 -18 -4 -36 -9 -41 -5 -6 -14
-48 -20 -95 -21 -152 -22 -155 -61 -155 l-34 0 3 50 c1 27 6 56 11 65 10 19
25 157 16 149 -4 -3 -13 -48 -22 -99 -8 -52 -19 -99 -25 -106 -6 -7 -9 -25 -7
-40 4 -36 57 -53 92 -31 26 17 44 99 73 337 10 86 4 81 101 78 l87 -3 6 -30
c6 -29 7 -29 8 8 l1 37 -104 0 -103 0 -7 -46z"/>
<path d="M7395 2295 c-4 -42 -5 -79 -1 -82 3 -4 6 3 6 15 0 11 5 43 11 70 l10
50 52 5 c29 3 57 1 63 -4 6 -5 14 -6 17 -2 4 3 7 0 8 -8 0 -8 3 -23 5 -34 3
-11 12 -62 19 -112 8 -51 18 -107 23 -125 l8 -33 97 -3 c114 -3 109 -12 76
128 l-19 85 6 -65 c3 -36 8 -82 11 -102 l6 -38 -81 0 c-95 0 -89 -7 -108 135
-8 55 -16 111 -18 125 -2 14 -4 35 -5 48 -1 21 -5 22 -90 22 l-89 0 -7 -75z"/>
</g>
</svg>
